<svg id="Layer_1" xmlns="http://www.w3.org/2000/svg" width="15" height="15" viewBox="0 0 15 15"><style>.st0{fill:#FFFFFF;}</style><path class="st0" d="M14.2 12.9l-1.4 1.3c-.4.5-1.1.8-1.8.8s-1.4-.3-1.9-.8l-1.9-1.9c-.5-.5-.8-1.2-.8-1.9s.3-1.4.8-1.9l-.7-.8c-.5.5-1.2.8-1.9.8s-1.4-.3-1.9-.8L.8 5.8C.3 5.3 0 4.7 0 4s.3-1.4.8-1.9L2.2.8C2.6.3 3.3 0 4 0s1.4.3 1.9.8l1.9 1.9c.5.5.8 1.2.8 1.9S8.3 6 7.8 6.5l.8.8c.4-.5 1.1-.8 1.8-.8s1.4.3 1.9.8l1.9 1.9c.5.5.8 1.1.8 1.8s-.3 1.4-.8 1.9zm-7.7-9L4.6 2c-.1-.1-.4-.2-.6-.2-.2 0-.5.1-.6.2L2 3.4c-.1.1-.2.3-.2.6 0 .2.1.5.3.6L4 6.5c.2.2.4.2.6.2.3 0 .5-.1.7-.3-.3-.3-.7-.6-.7-1s.4-.8.8-.8c.5 0 .7.4 1 .7.3-.3.4-.5.4-.8 0-.2-.1-.4-.3-.6zm6.5 6.5l-1.9-1.9c-.2-.2-.4-.3-.6-.3-.3 0-.5.1-.7.3.3.3.7.6.7 1 0 .5-.4.9-.9.9s-.7-.4-1-.7c-.2.2-.3.4-.3.7 0 .2.1.5.3.6l1.9 1.9c.2.2.4.2.6.2.2 0 .5-.1.6-.2l1.4-1.3c.2-.2.3-.4.3-.6-.2-.2-.3-.4-.4-.6z"/></svg>