<svg id="Layer_1" width='15' height='15' xmlns="http://www.w3.org/2000/svg" viewBox="0 0 15 15"><style>.st0{fill:#fff;}</style><path class="st0" d="M13.8 15c-.3 0-.6-.1-.8-.3l-3.1-3.1c-1.1.7-2.3 1.1-3.6 1.1C2.8 12.7 0 9.9 0 6.3S2.8 0 6.3 0s6.3 2.8 6.3 6.3c0 1.3-.4 2.5-1.1 3.6l3.1 3.1c.2.2.3.5.3.8.1.7-.4 1.2-1.1 1.2zM6.3 2.3c-2.2 0-4 1.8-4 4s1.8 4 4 4 4-1.8 4-4-1.7-4-4-4zM9 6.8c0 .1-.1.2-.3.2H7v1.8c0 .1-.1.2-.3.2h-.5c-.1 0-.2-.1-.2-.2V7H4.2c-.1 0-.2-.1-.2-.2v-.5c0-.2.1-.3.2-.3H6V4.3c0-.2.1-.3.2-.3h.5c.2 0 .3.1.3.3V6h1.7c.2 0 .3.1.3.3v.5z"/></svg>